<svg id="Capa_1" data-name="Capa 1" xmlns="http://www.w3.org/2000/svg" viewBox="0 0 287 190"><defs><style>.cls-1{fill:#f2f2f2;}</style></defs><path class="cls-1" d="M41.34,27S39.28,8.48,103.06,8.48s109.05,2.06,109.05,2.06S224.45,8.48,245,22.88V155.29s-26.74,28.07-98.75,28.07S41.33,156.48,41.33,156.48Zm74.07,76V47.69a4.25,4.25,0,0,0-4.24-4.23H88.78a4.25,4.25,0,0,0-4.24,4.23V103a4.26,4.26,0,0,0,4.24,4.24h22.39A4.26,4.26,0,0,0,115.41,103Zm88.47,0V47.69a4.25,4.25,0,0,0-4.24-4.23H177.25A4.25,4.25,0,0,0,173,47.69V103a4.26,4.26,0,0,0,4.24,4.24h22.39A4.26,4.26,0,0,0,203.88,103ZM169.7,129.87c-9.36,1.87-22.74,2.75-25.09,2.9-2.36-.15-15.73-1-25.09-2.9-10.29-2.06-8.23,6.17-8.23,6.17,0,16.83,27.84,18.36,32.92,18.5v0h.8v0c5.08-.14,32.92-1.67,32.92-18.5C177.93,136,180,127.81,169.7,129.87Z"/><path class="cls-1" d="M20.76,39.34l2.06,98.76S6.36,117.52,6.36,86.66,20.76,39.34,20.76,39.34Z"/><path class="cls-1" d="M265.6,144.27l-2.06-98.76S280,66.09,280,97,265.6,144.27,265.6,144.27Z"/></svg>